<mxfile host="app.diagrams.net" modified="2023-04-13T22:10:02.833Z" agent="Mozilla/5.0 (Windows NT 10.0; Win64; x64) AppleWebKit/537.36 (KHTML, like Gecko) Chrome/111.0.0.0 Safari/537.36" etag="zATG-coBI7lLdpyLJO1q" version="21.1.7" type="device">
  <diagram name="Página-1" id="iIS2DFg2TAfWpGaAXRKq">
    <mxGraphModel dx="1120" dy="452" grid="1" gridSize="10" guides="1" tooltips="1" connect="1" arrows="1" fold="1" page="1" pageScale="1" pageWidth="827" pageHeight="1169" math="0" shadow="0">
      <root>
        <mxCell id="0" />
        <mxCell id="1" parent="0" />
        <mxCell id="Cna8qJgqKhBat3kljX-H-1" value="" style="shape=folder;fontStyle=1;spacingTop=10;tabWidth=40;tabHeight=14;tabPosition=left;html=1;whiteSpace=wrap;" vertex="1" parent="1">
          <mxGeometry x="80" y="30" width="390" height="300" as="geometry" />
        </mxCell>
        <mxCell id="Cna8qJgqKhBat3kljX-H-2" value="application" style="text;align=center;fontStyle=1;verticalAlign=middle;spacingLeft=3;spacingRight=3;strokeColor=none;rotatable=0;points=[[0,0.5],[1,0.5]];portConstraint=eastwest;html=1;" vertex="1" parent="1">
          <mxGeometry x="240" y="50" width="80" height="26" as="geometry" />
        </mxCell>
        <mxCell id="Cna8qJgqKhBat3kljX-H-3" value="controller" style="shape=folder;fontStyle=1;spacingTop=10;tabWidth=40;tabHeight=14;tabPosition=left;html=1;whiteSpace=wrap;" vertex="1" parent="1">
          <mxGeometry x="110" y="86" width="130" height="104" as="geometry" />
        </mxCell>
        <mxCell id="Cna8qJgqKhBat3kljX-H-4" value="service" style="shape=folder;fontStyle=1;spacingTop=10;tabWidth=40;tabHeight=14;tabPosition=left;html=1;whiteSpace=wrap;" vertex="1" parent="1">
          <mxGeometry x="300" y="96" width="120" height="94" as="geometry" />
        </mxCell>
        <mxCell id="Cna8qJgqKhBat3kljX-H-5" value="dto" style="shape=folder;fontStyle=1;spacingTop=10;tabWidth=40;tabHeight=14;tabPosition=left;html=1;whiteSpace=wrap;" vertex="1" parent="1">
          <mxGeometry x="290" y="210" width="130" height="100" as="geometry" />
        </mxCell>
        <mxCell id="Cna8qJgqKhBat3kljX-H-6" value="" style="shape=folder;fontStyle=1;spacingTop=10;tabWidth=40;tabHeight=14;tabPosition=left;html=1;whiteSpace=wrap;" vertex="1" parent="1">
          <mxGeometry x="90" y="380" width="610" height="380" as="geometry" />
        </mxCell>
        <mxCell id="Cna8qJgqKhBat3kljX-H-7" value="domain" style="text;align=center;fontStyle=1;verticalAlign=middle;spacingLeft=3;spacingRight=3;strokeColor=none;rotatable=0;points=[[0,0.5],[1,0.5]];portConstraint=eastwest;html=1;" vertex="1" parent="1">
          <mxGeometry x="334" y="400" width="80" height="26" as="geometry" />
        </mxCell>
        <mxCell id="Cna8qJgqKhBat3kljX-H-8" value="" style="shape=folder;fontStyle=1;spacingTop=10;tabWidth=40;tabHeight=14;tabPosition=left;html=1;whiteSpace=wrap;" vertex="1" parent="1">
          <mxGeometry x="510" y="30" width="500" height="300" as="geometry" />
        </mxCell>
        <mxCell id="Cna8qJgqKhBat3kljX-H-9" value="infrastructure" style="text;align=center;fontStyle=1;verticalAlign=middle;spacingLeft=3;spacingRight=3;strokeColor=none;rotatable=0;points=[[0,0.5],[1,0.5]];portConstraint=eastwest;html=1;" vertex="1" parent="1">
          <mxGeometry x="700" y="50" width="80" height="26" as="geometry" />
        </mxCell>
        <mxCell id="Cna8qJgqKhBat3kljX-H-10" value="" style="shape=folder;fontStyle=1;spacingTop=10;tabWidth=40;tabHeight=14;tabPosition=left;html=1;whiteSpace=wrap;" vertex="1" parent="1">
          <mxGeometry x="530" y="86" width="310" height="224" as="geometry" />
        </mxCell>
        <mxCell id="Cna8qJgqKhBat3kljX-H-11" value="persistence" style="text;align=center;fontStyle=1;verticalAlign=middle;spacingLeft=3;spacingRight=3;strokeColor=none;rotatable=0;points=[[0,0.5],[1,0.5]];portConstraint=eastwest;html=1;" vertex="1" parent="1">
          <mxGeometry x="610" y="100" width="80" height="26" as="geometry" />
        </mxCell>
        <mxCell id="Cna8qJgqKhBat3kljX-H-12" value="entity" style="shape=folder;fontStyle=1;spacingTop=10;tabWidth=40;tabHeight=14;tabPosition=left;html=1;whiteSpace=wrap;" vertex="1" parent="1">
          <mxGeometry x="557" y="150" width="103" height="70" as="geometry" />
        </mxCell>
        <mxCell id="Cna8qJgqKhBat3kljX-H-13" value="repository" style="shape=folder;fontStyle=1;spacingTop=10;tabWidth=40;tabHeight=14;tabPosition=left;html=1;whiteSpace=wrap;" vertex="1" parent="1">
          <mxGeometry x="690" y="155" width="100" height="65" as="geometry" />
        </mxCell>
        <mxCell id="Cna8qJgqKhBat3kljX-H-14" value="mapper-app" style="shape=folder;fontStyle=1;spacingTop=10;tabWidth=40;tabHeight=14;tabPosition=left;html=1;whiteSpace=wrap;" vertex="1" parent="1">
          <mxGeometry x="110" y="220" width="130" height="80" as="geometry" />
        </mxCell>
        <mxCell id="Cna8qJgqKhBat3kljX-H-15" value="mapper-persistence" style="shape=folder;fontStyle=1;spacingTop=10;tabWidth=40;tabHeight=14;tabPosition=left;html=1;whiteSpace=wrap;" vertex="1" parent="1">
          <mxGeometry x="610" y="230" width="103" height="70" as="geometry" />
        </mxCell>
        <mxCell id="Cna8qJgqKhBat3kljX-H-16" value="util" style="shape=folder;fontStyle=1;spacingTop=10;tabWidth=40;tabHeight=14;tabPosition=left;html=1;whiteSpace=wrap;" vertex="1" parent="1">
          <mxGeometry x="870" y="86" width="120" height="94" as="geometry" />
        </mxCell>
        <mxCell id="Cna8qJgqKhBat3kljX-H-17" value="" style="shape=folder;fontStyle=1;spacingTop=10;tabWidth=40;tabHeight=14;tabPosition=left;html=1;whiteSpace=wrap;" vertex="1" parent="1">
          <mxGeometry x="110" y="426" width="390" height="314" as="geometry" />
        </mxCell>
        <mxCell id="Cna8qJgqKhBat3kljX-H-18" value="" style="shape=folder;fontStyle=1;spacingTop=10;tabWidth=40;tabHeight=14;tabPosition=left;html=1;whiteSpace=wrap;" vertex="1" parent="1">
          <mxGeometry x="530" y="545" width="140" height="80" as="geometry" />
        </mxCell>
        <mxCell id="Cna8qJgqKhBat3kljX-H-20" value="services" style="text;align=center;fontStyle=1;verticalAlign=middle;spacingLeft=3;spacingRight=3;strokeColor=none;rotatable=0;points=[[0,0.5],[1,0.5]];portConstraint=eastwest;html=1;" vertex="1" parent="1">
          <mxGeometry x="560" y="572" width="80" height="26" as="geometry" />
        </mxCell>
        <mxCell id="Cna8qJgqKhBat3kljX-H-22" value="domain-object" style="text;align=center;fontStyle=1;verticalAlign=middle;spacingLeft=3;spacingRight=3;strokeColor=none;rotatable=0;points=[[0,0.5],[1,0.5]];portConstraint=eastwest;html=1;" vertex="1" parent="1">
          <mxGeometry x="340" y="446" width="80" height="26" as="geometry" />
        </mxCell>
        <mxCell id="Cna8qJgqKhBat3kljX-H-23" value="" style="shape=folder;fontStyle=1;spacingTop=10;tabWidth=40;tabHeight=14;tabPosition=left;html=1;whiteSpace=wrap;" vertex="1" parent="1">
          <mxGeometry x="530" y="440" width="105" height="80" as="geometry" />
        </mxCell>
        <mxCell id="Cna8qJgqKhBat3kljX-H-24" value="events" style="text;align=center;fontStyle=1;verticalAlign=middle;spacingLeft=3;spacingRight=3;strokeColor=none;rotatable=0;points=[[0,0.5],[1,0.5]];portConstraint=eastwest;html=1;" vertex="1" parent="1">
          <mxGeometry x="542.5" y="460" width="80" height="26" as="geometry" />
        </mxCell>
        <mxCell id="Cna8qJgqKhBat3kljX-H-29" value="" style="shape=folder;fontStyle=1;spacingTop=10;tabWidth=40;tabHeight=14;tabPosition=left;html=1;whiteSpace=wrap;" vertex="1" parent="1">
          <mxGeometry x="150" y="490" width="311" height="204" as="geometry" />
        </mxCell>
        <mxCell id="Cna8qJgqKhBat3kljX-H-30" value="aggregate-1" style="text;align=center;fontStyle=1;verticalAlign=middle;spacingLeft=3;spacingRight=3;strokeColor=none;rotatable=0;points=[[0,0.5],[1,0.5]];portConstraint=eastwest;html=1;" vertex="1" parent="1">
          <mxGeometry x="265.5" y="502" width="80" height="26" as="geometry" />
        </mxCell>
        <mxCell id="Cna8qJgqKhBat3kljX-H-27" value="aggregateRoot" style="html=1;whiteSpace=wrap;" vertex="1" parent="1">
          <mxGeometry x="181" y="540" width="110" height="50" as="geometry" />
        </mxCell>
        <mxCell id="Cna8qJgqKhBat3kljX-H-28" value="aggregateChild" style="html=1;whiteSpace=wrap;" vertex="1" parent="1">
          <mxGeometry x="321" y="540" width="110" height="50" as="geometry" />
        </mxCell>
        <mxCell id="Cna8qJgqKhBat3kljX-H-26" value="«interface»&lt;br&gt;&lt;b&gt;repository&lt;/b&gt;" style="html=1;whiteSpace=wrap;" vertex="1" parent="1">
          <mxGeometry x="181" y="614" width="110" height="50" as="geometry" />
        </mxCell>
      </root>
    </mxGraphModel>
  </diagram>
</mxfile>
